<svg width="605" height="707" viewBox="0 0 605 707" fill="none" xmlns="http://www.w3.org/2000/svg">
<g filter="url(#filter0_f_42_2)">
<rect x="203.133" y="51.1389" width="127.89" height="293.194" transform="rotate(42.78 203.133 51.1389)" fill="#4574D8" fill-opacity="0.11"/>
</g>
<g opacity="0.5" filter="url(#filter1_f_42_2)">
<rect x="424.302" y="359.828" width="143.357" height="198.545" rx="20" transform="rotate(-142.876 424.302 359.828)" fill="url(#paint0_radial_42_2)" fill-opacity="0.23"/>
</g>
<g opacity="0.5" filter="url(#filter2_f_42_2)">
<rect x="127.621" y="332" width="105.071" height="169.022" rx="20" transform="rotate(39.9891 127.621 332)" fill="url(#paint1_radial_42_2)" fill-opacity="0.23"/>
</g>
<g opacity="0.5" filter="url(#filter3_f_42_2)">
<rect x="449" y="615" width="122.665" height="257.755" rx="20" transform="rotate(-142.876 449 615)" fill="url(#paint2_radial_42_2)" fill-opacity="0.23"/>
</g>
<path d="M438.374 3.75312C440.199 1.68033 443.358 1.4791 445.431 3.30366L449.184 6.60731C451.257 8.43187 451.458 11.5913 449.634 13.6641L160.563 342.063C158.738 344.136 155.579 344.337 153.506 342.512L149.753 339.209C147.68 337.384 147.479 334.225 149.304 332.152L438.374 3.75312Z" fill="url(#paint3_linear_42_2)" fill-opacity="0.64"/>
<rect x="535.656" y="209" width="15" height="207" rx="5" transform="rotate(38.0754 535.656 209)" fill="url(#paint4_linear_42_2)" fill-opacity="0.64"/>
<rect x="488.443" y="90" width="13.7909" height="244.143" rx="5" transform="rotate(37.4463 488.443 90)" fill="url(#paint5_linear_42_2)" fill-opacity="0.64"/>
<path d="M91.1294 532.383C89.3089 534.46 86.1499 534.667 84.0735 532.847L80.3139 529.551C78.2375 527.73 78.03 524.571 79.8504 522.495L187.456 399.76C189.277 397.683 192.436 397.476 194.512 399.296L198.272 402.592C200.348 404.413 200.556 407.572 198.735 409.648L91.1294 532.383Z" fill="url(#paint6_linear_42_2)" fill-opacity="0.64"/>
<rect x="231.571" y="475" width="13.3542" height="296.035" rx="5" transform="rotate(41.3482 231.571 475)" fill="url(#paint7_linear_42_2)" fill-opacity="0.64"/>
<rect x="462.188" y="423" width="13.3542" height="242.715" rx="5" transform="rotate(37.9276 462.188 423)" fill="url(#paint8_linear_42_2)" fill-opacity="0.64"/>
<defs>
<filter id="filter0_f_42_2" x="0" y="47.1389" width="301" height="310.056" filterUnits="userSpaceOnUse" color-interpolation-filters="sRGB">
<feFlood flood-opacity="0" result="BackgroundImageFix"/>
<feBlend mode="normal" in="SourceGraphic" in2="BackgroundImageFix" result="shape"/>
<feGaussianBlur stdDeviation="2" result="effect1_foregroundBlur_42_2"/>
</filter>
<filter id="filter1_f_42_2" x="312.016" y="117.016" width="230.1" height="240.795" filterUnits="userSpaceOnUse" color-interpolation-filters="sRGB">
<feFlood flood-opacity="0" result="BackgroundImageFix"/>
<feBlend mode="normal" in="SourceGraphic" in2="BackgroundImageFix" result="shape"/>
<feGaussianBlur stdDeviation="3" result="effect1_foregroundBlur_42_2"/>
</filter>
<filter id="filter2_f_42_2" x="21.1757" y="334.176" width="184.771" height="192.671" filterUnits="userSpaceOnUse" color-interpolation-filters="sRGB">
<feFlood flood-opacity="0" result="BackgroundImageFix"/>
<feBlend mode="normal" in="SourceGraphic" in2="BackgroundImageFix" result="shape"/>
<feGaussianBlur stdDeviation="3" result="effect1_foregroundBlur_42_2"/>
</filter>
<filter id="filter3_f_42_2" x="353.212" y="337.467" width="249.339" height="275.517" filterUnits="userSpaceOnUse" color-interpolation-filters="sRGB">
<feFlood flood-opacity="0" result="BackgroundImageFix"/>
<feBlend mode="normal" in="SourceGraphic" in2="BackgroundImageFix" result="shape"/>
<feGaussianBlur stdDeviation="3" result="effect1_foregroundBlur_42_2"/>
</filter>
<radialGradient id="paint0_radial_42_2" cx="0" cy="0" r="1" gradientUnits="userSpaceOnUse" gradientTransform="translate(383.473 816.986) rotate(94.4434) scale(1019.25 736.426)">
<stop offset="0.317302" stop-color="#4574D8"/>
<stop offset="0.467408" stop-color="#060E21"/>
<stop offset="0.896264" stop-color="#213A70"/>
<stop offset="0.919875" stop-color="#060E21"/>
</radialGradient>
<radialGradient id="paint1_radial_42_2" cx="0" cy="0" r="1" gradientUnits="userSpaceOnUse" gradientTransform="translate(97.6957 721.182) rotate(93.8275) scale(867.022 540.172)">
<stop offset="0.317302" stop-color="#4574D8"/>
<stop offset="0.467408" stop-color="#060E21"/>
<stop offset="0.896264" stop-color="#213A70"/>
<stop offset="0.919875" stop-color="#060E21"/>
</radialGradient>
<radialGradient id="paint2_radial_42_2" cx="0" cy="0" r="1" gradientUnits="userSpaceOnUse" gradientTransform="translate(414.064 1208.49) rotate(92.932) scale(1320.97 631.205)">
<stop offset="0.317302" stop-color="#4574D8"/>
<stop offset="0.467408" stop-color="#060E21"/>
<stop offset="0.896264" stop-color="#213A70"/>
<stop offset="0.919875" stop-color="#060E21"/>
</radialGradient>
<linearGradient id="paint3_linear_42_2" x1="423.966" y1="8.77019" x2="128.288" y2="344.675" gradientUnits="userSpaceOnUse">
<stop stop-color="#17D6FF"/>
<stop offset="0.5" stop-color="#12ABCC"/>
<stop offset="1" stop-color="#060E21"/>
</linearGradient>
<linearGradient id="paint4_linear_42_2" x1="543.156" y1="209" x2="543.156" y2="416" gradientUnits="userSpaceOnUse">
<stop stop-color="#17D6FF"/>
<stop offset="0.5" stop-color="#12ABCC"/>
<stop offset="1" stop-color="#060E21"/>
</linearGradient>
<linearGradient id="paint5_linear_42_2" x1="495.339" y1="90" x2="495.339" y2="334.143" gradientUnits="userSpaceOnUse">
<stop stop-color="#17D6FF"/>
<stop offset="0.5" stop-color="#12ABCC"/>
<stop offset="1" stop-color="#060E21"/>
</linearGradient>
<linearGradient id="paint6_linear_42_2" x1="74.8201" y1="562.362" x2="189.019" y2="432.108" gradientUnits="userSpaceOnUse">
<stop stop-color="#17D6FF"/>
<stop offset="0.5" stop-color="#12ABCC"/>
<stop offset="0.798616" stop-color="#0C1935"/>
</linearGradient>
<linearGradient id="paint7_linear_42_2" x1="238.248" y1="475" x2="238.248" y2="771.035" gradientUnits="userSpaceOnUse">
<stop stop-color="#060F20"/>
<stop offset="0.5" stop-color="#12ABCC"/>
<stop offset="1" stop-color="#060E21"/>
</linearGradient>
<linearGradient id="paint8_linear_42_2" x1="468.865" y1="423" x2="468.865" y2="665.715" gradientUnits="userSpaceOnUse">
<stop stop-color="#060F20"/>
<stop offset="0.5" stop-color="#12ABCC"/>
<stop offset="1" stop-color="#060E21"/>
</linearGradient>
</defs>
</svg>
