<?xml version="1.0" encoding="UTF-8" standalone="no"?>
<!-- Created with Inkscape (http://www.inkscape.org/) -->

<svg
   width="512"
   height="512"
   viewBox="0 0 512 512"
   version="1.1"
   id="svg1"
   xmlns:xlink="http://www.w3.org/1999/xlink"
   xmlns="http://www.w3.org/2000/svg"
   xmlns:svg="http://www.w3.org/2000/svg">
  <defs
     id="defs1">
    <linearGradient
       id="linearGradient2">
      <stop
         style="stop-color:#0b2466;stop-opacity:1;"
         offset="0.19283746"
         id="stop2" />
      <stop
         style="stop-color:#17d6ff;stop-opacity:1;"
         offset="1"
         id="stop3" />
    </linearGradient>
    <linearGradient
       xlink:href="#linearGradient2"
       id="linearGradient3"
       x1="778.92883"
       y1="116.57438"
       x2="779.59119"
       y2="506.70114"
       gradientUnits="userSpaceOnUse"
       gradientTransform="matrix(1.0521637,0,0,1.0521637,-564.95381,-36.00317)" />
  </defs>
  <g
     id="layer1">
    <rect
       style="fill:#050d22;fill-opacity:1"
       id="rect1"
       width="513.32471"
       height="513.98706"
       x="-0.66235352"
       y="-0.99353027"
       ry="58.949547" />
    <path
       id="path1"
       style="fill:url(#linearGradient3);fill-opacity:1;stroke-width:1.05216"
       d="M 256.00103,85.95535 A 170.0449,170.0449 0 0 0 85.95534,256.00102 170.0449,170.0449 0 0 0 256.00103,426.04465 170.0449,170.0449 0 0 0 426.04466,256.00102 170.0449,170.0449 0 0 0 256.00103,85.95535 Z m 0,55.75234 A 114.29247,114.29247 0 0 1 370.29231,256.00102 114.29247,114.29247 0 0 1 256.00103,370.2923 114.29247,114.29247 0 0 1 141.70769,256.00102 114.29247,114.29247 0 0 1 256.00103,141.70769 Z" />
  </g>
</svg>
