<svg width="100" height="100" viewBox="0 0 100 100" fill="none" xmlns="http://www.w3.org/2000/svg">
<path d="M24.3749 71.25C27.9166 68.5417 31.8749 66.4062 36.2499 64.8438C40.6249 63.2812 45.2083 62.5 49.9999 62.5C54.7916 62.5 59.3749 63.2812 63.7499 64.8438C68.1249 66.4062 72.0832 68.5417 75.6249 71.25C78.0555 68.4028 79.9478 65.1736 81.302 61.5625C82.6562 57.9514 83.3333 54.0972 83.3333 50C83.3333 40.7639 80.0867 32.8993 73.5937 26.4063C67.1006 19.9132 59.236 16.6667 49.9999 16.6667C40.7638 16.6667 32.8992 19.9132 26.4062 26.4063C19.9131 32.8993 16.6666 40.7639 16.6666 50C16.6666 54.0972 17.3437 57.9514 18.6978 61.5625C20.052 65.1736 21.9444 68.4028 24.3749 71.25ZM49.9999 54.1667C45.9027 54.1667 42.4478 52.7604 39.6353 49.9479C36.8228 47.1354 35.4166 43.6806 35.4166 39.5833C35.4166 35.4861 36.8228 32.0313 39.6353 29.2188C42.4478 26.4063 45.9027 25 49.9999 25C54.0971 25 57.552 26.4063 60.3645 29.2188C63.177 32.0313 64.5832 35.4861 64.5832 39.5833C64.5832 43.6806 63.177 47.1354 60.3645 49.9479C57.552 52.7604 54.0971 54.1667 49.9999 54.1667ZM49.9999 91.6667C44.236 91.6667 38.8194 90.5729 33.7499 88.3854C28.6805 86.1979 24.2708 83.2292 20.5208 79.4792C16.7708 75.7292 13.802 71.3194 11.6145 66.25C9.427 61.1806 8.33325 55.7639 8.33325 50C8.33325 44.2361 9.427 38.8194 11.6145 33.75C13.802 28.6806 16.7708 24.2708 20.5208 20.5208C24.2708 16.7708 28.6805 13.8021 33.7499 11.6146C38.8194 9.42709 44.236 8.33334 49.9999 8.33334C55.7638 8.33334 61.1805 9.42709 66.2499 11.6146C71.3194 13.8021 75.7291 16.7708 79.4791 20.5208C83.2291 24.2708 86.1978 28.6806 88.3853 33.75C90.5728 38.8194 91.6666 44.2361 91.6666 50C91.6666 55.7639 90.5728 61.1806 88.3853 66.25C86.1978 71.3194 83.2291 75.7292 79.4791 79.4792C75.7291 83.2292 71.3194 86.1979 66.2499 88.3854C61.1805 90.5729 55.7638 91.6667 49.9999 91.6667Z" fill="#FEF7FF"/>
</svg>
