<svg width="305" height="305" viewBox="0 0 305 305" fill="none" xmlns="http://www.w3.org/2000/svg">
<path d="M152.5 266.875C143.604 266.875 136.085 263.804 129.943 257.661C123.8 251.519 120.729 244 120.729 235.104C120.729 226.208 123.8 218.689 129.943 212.547C136.085 206.405 143.604 203.333 152.5 203.333C161.396 203.333 168.915 206.405 175.057 212.547C181.2 218.689 184.271 226.208 184.271 235.104C184.271 244 181.2 251.519 175.057 257.661C168.915 263.804 161.396 266.875 152.5 266.875ZM80.6979 195.073L54.0104 167.75C66.5069 155.254 81.1745 145.352 98.013 138.044C114.852 130.737 133.014 127.083 152.5 127.083C171.986 127.083 190.148 130.79 206.987 138.203C223.826 145.616 238.493 155.677 250.99 168.385L224.302 195.073C214.983 185.754 204.181 178.446 191.896 173.151C179.611 167.856 166.479 165.208 152.5 165.208C138.521 165.208 125.389 167.856 113.104 173.151C100.819 178.446 90.0174 185.754 80.6979 195.073ZM26.6875 141.063L0 114.375C19.4861 94.4653 42.2552 78.8976 68.3073 67.6719C94.3594 56.4462 122.424 50.8334 152.5 50.8334C182.576 50.8334 210.641 56.4462 236.693 67.6719C262.745 78.8976 285.514 94.4653 305 114.375L278.312 141.063C262.003 124.754 243.1 111.992 221.602 102.779C200.103 93.5651 177.069 88.9584 152.5 88.9584C127.931 88.9584 104.897 93.5651 83.3984 102.779C61.9002 111.992 42.9965 124.754 26.6875 141.063Z" fill="#FEF7FF"/>
</svg>
